<svg xmlns="http://www.w3.org/2000/svg" viewBox="0 0 1120 220" role="img" aria-labelledby="title">
  <title id="title">HackFluence</title>
  <g>
    <text x="16" y="177" fill="#ffffff" font-family="Impact, Haettenschweiler, 'Arial Black', sans-serif" font-size="176" font-weight="900" letter-spacing="5" textLength="122" lengthAdjust="spacingAndGlyphs">H</text>
    <text x="210" y="177" fill="#ffffff" font-family="Impact, Haettenschweiler, 'Arial Black', sans-serif" font-size="176" font-weight="900" letter-spacing="2" textLength="196" lengthAdjust="spacingAndGlyphs">CK</text>
    <text x="430" y="177" fill="#c9ec19" font-family="Impact, Haettenschweiler, 'Arial Black', sans-serif" font-size="176" font-weight="900" letter-spacing="0" textLength="650" lengthAdjust="spacingAndGlyphs">FLUENCE</text>
    <g transform="translate(123 24) rotate(9 42 82)">
      <path d="M43 0C70 33 75 73 64 123H22C13 77 18 34 43 0Z" fill="#f12b92" stroke="#08050f" stroke-width="7" />
      <circle cx="43" cy="51" r="18" fill="#ffffff" stroke="#08050f" stroke-width="7" />
      <path d="M19 88C2 101 -8 122 -12 149C7 143 19 134 28 121Z" fill="#f12b92" stroke="#08050f" stroke-width="7" />
      <path d="M68 88C85 101 94 123 99 149C78 143 66 134 58 121Z" fill="#f12b92" stroke="#08050f" stroke-width="7" />
      <path d="M37 86C36 106 32 126 24 145H64C56 126 52 106 51 86Z" fill="#08050f" />
      <path d="M34 122C33 144 26 162 13 182C33 170 42 154 43 132C45 154 55 170 75 182C61 162 54 144 53 122Z" fill="#ffffff" stroke="#08050f" stroke-width="5" />
      <path d="M39 74C39 90 36 104 30 116" fill="none" stroke="#ffffff" stroke-width="7" stroke-linecap="round" opacity=".85" />
    </g>
  </g>
</svg>
